<svg xmlns="http://www.w3.org/2000/svg" viewBox="0 0 800 500">
  <defs>
    <linearGradient id="terrain" x1="0" y1="0" x2="1" y2="1"><stop stop-color="#4d584d"/><stop offset=".62" stop-color="#333e37"/><stop offset="1" stop-color="#272f2b"/></linearGradient>
    <linearGradient id="river" x1="0" y1="0" x2="1" y2="0"><stop stop-color="#405b5c"/><stop offset=".48" stop-color="#294448"/><stop offset="1" stop-color="#1d353a"/></linearGradient>
    <linearGradient id="roof" x1="0" y1="0" x2="1" y2="1"><stop stop-color="#b6ad9c"/><stop offset=".55" stop-color="#756f66"/><stop offset="1" stop-color="#4a514d"/></linearGradient>
    <filter id="shadow" x="-30%" y="-30%" width="190%" height="190%"><feDropShadow dx="9" dy="11" stdDeviation="5" flood-color="#080c0a" flood-opacity=".78"/></filter>
    <pattern id="waterLines" width="31" height="23" patternUnits="userSpaceOnUse"><path d="M-8 14Q4 5 16 14T40 14" fill="none" stroke="#91adb0" stroke-opacity=".16" stroke-width="2"/></pattern>
  </defs>
  <rect width="800" height="500" fill="url(#terrain)"/>
  <path d="M739-20C716 97 754 191 730 282S761 426 720 520H820V-20Z" fill="url(#river)"/><path d="M739-20C716 97 754 191 730 282S761 426 720 520H820V-20Z" fill="url(#waterLines)"/>
  <g fill="url(#roof)" stroke="#c9c0ad" stroke-opacity=".2" filter="url(#shadow)">
    <path d="m180 63 190 3-3 145-188-2z"/><path d="m465 57 190 8-5 150-188-5z"/>
    <path d="m177 284 193 2-2 63-194-2z"/><path d="m473 282 174 3-2 66-175-3z"/>
    <path d="m176 386 191-2 2 80-194 1z"/><path d="m474 385 172 2-1 76-174 2z"/>
  </g>
  <g fill="#4b504c" opacity=".65"><path d="m202 82 142 2-1 17-143-2zm287-3 143 6-2 18-142-6z"/><path d="m200 303 146 1v14H199zm296 0 126 2v15l-128-2z"/></g>
  <g fill="none" stroke-linecap="round">
    <path d="M-30 252C185 247 332 260 431 252S617 243 744 250" stroke="#202724" stroke-width="46"/><path d="M-30 252C185 247 332 260 431 252S617 243 744 250" stroke="#666b66" stroke-width="37"/><path d="M-30 252C185 247 332 260 431 252S617 243 744 250" stroke="#d5c9a7" stroke-opacity=".4" stroke-width="2" stroke-dasharray="21 25"/>
    <path d="M431-30C420 90 441 170 431 252S438 413 429 530" stroke="#222925" stroke-width="38"/><path d="M431-30C420 90 441 170 431 252S438 413 429 530" stroke="#686d67" stroke-width="29"/>
    <path d="M148-30V530" stroke="#242b28" stroke-width="31"/><path d="M148-30V530" stroke="#696d66" stroke-width="23"/>
    <path d="M-30 365H735" stroke="#242b28" stroke-width="28"/><path d="M-30 365H735" stroke="#646962" stroke-width="20"/>
  </g>
  <g fill="#2d4931"><circle cx="61" cy="99" r="19"/><circle cx="102" cy="175" r="17"/><circle cx="397" cy="209" r="14"/><circle cx="674" cy="119" r="17"/><circle cx="683" cy="323" r="20"/><circle cx="92" cy="414" r="21"/></g>
  <g transform="translate(431 252)" filter="url(#shadow)"><path d="M-48 36V-27l17-18 16 18 15-18 16 18 15-18 17 18v63z" fill="#777068" stroke="#ded0ac" stroke-width="2"/><path d="M-34 36V7h20v29M13 36V7h20v29M-3 36V-7h17v43" fill="#3f4743" stroke="#c9b995" stroke-width="2"/></g>
  <path d="M0 0h800v500H0z" fill="none" stroke="#cdb579" stroke-opacity=".24" stroke-width="5"/>
</svg>
